<svg width="203" height="161" viewBox="0 0 203 161" fill="none" xmlns="http://www.w3.org/2000/svg">
<path d="M66.78 74.99C74.6133 78.4367 80.7233 83.6067 85.11 90.5C89.4967 97.3933 91.69 105.54 91.69 114.94C91.69 128.413 87.46 139.38 79 147.84C70.54 155.987 59.73 160.06 46.57 160.06C33.41 160.06 22.4433 155.83 13.67 147.37C5.21 138.91 0.980001 128.1 0.980001 114.94C0.980001 108.673 1.76333 102.407 3.33 96.14C4.89667 89.8733 8.34334 80.4733 13.67 67.94L40.93 0.25998H87.46L66.78 74.99ZM177.7 74.99C185.533 78.4367 191.643 83.6067 196.03 90.5C200.417 97.3933 202.61 105.54 202.61 114.94C202.61 128.413 198.38 139.38 189.92 147.84C181.46 155.987 170.65 160.06 157.49 160.06C144.33 160.06 133.363 155.83 124.59 147.37C116.13 138.91 111.9 128.1 111.9 114.94C111.9 108.673 112.683 102.407 114.25 96.14C115.817 89.8733 119.263 80.4733 124.59 67.94L151.85 0.25998H198.38L177.7 74.99Z" fill="#BBDFE6"/>
</svg>
